<?xml version="1.0" standalone="no"?>
 <!DOCTYPE svg PUBLIC "-//W3C//DTD SVG 1.1//EN" 
 "http://www.w3.org/Graphics/SVG/1.1/DTD/svg11.dtd"> 
<svg xmlns="http://www.w3.org/2000/svg" version="1.1" 
    width="29.7002cm" height="21.0007cm" viewBox="0 0 116930 82680 ">
<title>SVG Picture created as OSS-OSS1.svg date 2017/01/16 17:40:21 </title>
  <desc>Picture generated by Eeschema-SVG </desc>
<g style="fill:#000000; fill-opacity:1;stroke:#000000; stroke-opacity:1;
stroke-linecap:round; stroke-linejoin:round; "
 transform="translate(0 0) scale(1 1)">
</g>
<g style="fill:#000000; fill-opacity:0.0; 
stroke:#000000; stroke-width:-10; stroke-opacity:1; 
stroke-linecap:round; stroke-linejoin:round;">
</g>
<g style="fill:#840000; fill-opacity:0.0; 
stroke:#840000; stroke-width:-10; stroke-opacity:1; 
stroke-linecap:round; stroke-linejoin:round;">
</g>
<g style="fill:#840000; fill-opacity:0.0; 
stroke:#840000; stroke-width:100; stroke-opacity:1; 
stroke-linecap:round; stroke-linejoin:round;">
</g>
<g style="fill:#840000; fill-opacity:0.0; 
stroke:#840000; stroke-width:60; stroke-opacity:1; 
stroke-linecap:round; stroke-linejoin:round;">
<rect x="69690" y="65360" width="42520" height="12600" rx="0" />
</g>
<g style="fill:#840000; fill-opacity:0.0; 
stroke:#840000; stroke-width:100; stroke-opacity:1; 
stroke-linecap:round; stroke-linejoin:round;">
</g>
<g style="fill:#840000; fill-opacity:0.0; 
stroke:#840000; stroke-width:60; stroke-opacity:1; 
stroke-linecap:round; stroke-linejoin:round;">
<rect x="3940" y="3940" width="109050" height="74800" rx="0" />
</g>
<g style="fill:#840000; fill-opacity:0.0; 
stroke:#840000; stroke-width:100; stroke-opacity:1; 
stroke-linecap:round; stroke-linejoin:round;">
</g>
<g style="fill:#840000; fill-opacity:0.0; 
stroke:#840000; stroke-width:60; stroke-opacity:1; 
stroke-linecap:round; stroke-linejoin:round;">
<rect x="4720" y="4720" width="107490" height="73240" rx="0" />
</g>
<g style="fill:#840000; fill-opacity:0.0; 
stroke:#840000; stroke-width:100; stroke-opacity:1; 
stroke-linecap:round; stroke-linejoin:round;">
</g>
<g style="fill:#840000; fill-opacity:0.0; 
stroke:#840000; stroke-width:60; stroke-opacity:1; 
stroke-linecap:round; stroke-linejoin:round;">
<path d="M23620 4720
L23620 3940
" />
</g>
<g style="fill:#840000; fill-opacity:0.0; 
stroke:#840000; stroke-width:100; stroke-opacity:1; 
stroke-linecap:round; stroke-linejoin:round;">
</g>
<g style="fill:#840000; fill-opacity:0.0; 
stroke:#840000; stroke-width:60; stroke-opacity:1; 
stroke-linecap:round; stroke-linejoin:round;">
<path d="M43310 4720
L43310 3940
" />
</g>
<g style="fill:#840000; fill-opacity:0.0; 
stroke:#840000; stroke-width:100; stroke-opacity:1; 
stroke-linecap:round; stroke-linejoin:round;">
</g>
<g style="fill:#840000; fill-opacity:0.0; 
stroke:#840000; stroke-width:60; stroke-opacity:1; 
stroke-linecap:round; stroke-linejoin:round;">
<path d="M62990 4720
L62990 3940
" />
</g>
<g style="fill:#840000; fill-opacity:0.0; 
stroke:#840000; stroke-width:100; stroke-opacity:1; 
stroke-linecap:round; stroke-linejoin:round;">
</g>
<g style="fill:#840000; fill-opacity:0.0; 
stroke:#840000; stroke-width:60; stroke-opacity:1; 
stroke-linecap:round; stroke-linejoin:round;">
<path d="M82680 4720
L82680 3940
" />
</g>
<g style="fill:#840000; fill-opacity:0.0; 
stroke:#840000; stroke-width:100; stroke-opacity:1; 
stroke-linecap:round; stroke-linejoin:round;">
</g>
<g style="fill:#840000; fill-opacity:0.0; 
stroke:#840000; stroke-width:60; stroke-opacity:1; 
stroke-linecap:round; stroke-linejoin:round;">
<path d="M102360 4720
L102360 3940
" />
</g>
<g style="fill:#840000; fill-opacity:0.0; 
stroke:#840000; stroke-width:100; stroke-opacity:1; 
stroke-linecap:round; stroke-linejoin:round;">
</g>
<g style="fill:#840000; fill-opacity:0.0; 
stroke:#840000; stroke-width:60; stroke-opacity:1; 
stroke-linecap:round; stroke-linejoin:round;">
<path d="M14170 4560
L13880 4560
" />
<path d="M14020 4560
L14020 4050
L13970 4120
L13930 4170
L13880 4190
" />
</g>
<g style="fill:#840000; fill-opacity:0.0; 
stroke:#840000; stroke-width:100; stroke-opacity:1; 
stroke-linecap:round; stroke-linejoin:round;">
</g>
<g style="fill:#840000; fill-opacity:0.0; 
stroke:#840000; stroke-width:60; stroke-opacity:1; 
stroke-linecap:round; stroke-linejoin:round;">
<path d="M33560 4090
L33580 4070
L33630 4050
L33750 4050
L33800 4070
L33820 4090
L33850 4140
L33850 4190
L33820 4260
L33530 4560
L33850 4560
" />
</g>
<g style="fill:#840000; fill-opacity:0.0; 
stroke:#840000; stroke-width:100; stroke-opacity:1; 
stroke-linecap:round; stroke-linejoin:round;">
</g>
<g style="fill:#840000; fill-opacity:0.0; 
stroke:#840000; stroke-width:60; stroke-opacity:1; 
stroke-linecap:round; stroke-linejoin:round;">
<path d="M53220 4050
L53540 4050
L53370 4240
L53440 4240
L53490 4260
L53510 4290
L53540 4340
L53540 4460
L53510 4510
L53490 4530
L53440 4560
L53300 4560
L53250 4530
L53220 4510
" />
</g>
<g style="fill:#840000; fill-opacity:0.0; 
stroke:#840000; stroke-width:100; stroke-opacity:1; 
stroke-linecap:round; stroke-linejoin:round;">
</g>
<g style="fill:#840000; fill-opacity:0.0; 
stroke:#840000; stroke-width:60; stroke-opacity:1; 
stroke-linecap:round; stroke-linejoin:round;">
<path d="M73170 4220
L73170 4560
" />
<path d="M73050 4020
L72930 4390
L73240 4390
" />
</g>
<g style="fill:#840000; fill-opacity:0.0; 
stroke:#840000; stroke-width:100; stroke-opacity:1; 
stroke-linecap:round; stroke-linejoin:round;">
</g>
<g style="fill:#840000; fill-opacity:0.0; 
stroke:#840000; stroke-width:60; stroke-opacity:1; 
stroke-linecap:round; stroke-linejoin:round;">
<path d="M92880 4050
L92640 4050
L92620 4290
L92640 4260
L92690 4240
L92810 4240
L92860 4260
L92880 4290
L92910 4340
L92910 4460
L92880 4510
L92860 4530
L92810 4560
L92690 4560
L92640 4530
L92620 4510
" />
</g>
<g style="fill:#840000; fill-opacity:0.0; 
stroke:#840000; stroke-width:100; stroke-opacity:1; 
stroke-linecap:round; stroke-linejoin:round;">
</g>
<g style="fill:#840000; fill-opacity:0.0; 
stroke:#840000; stroke-width:60; stroke-opacity:1; 
stroke-linecap:round; stroke-linejoin:round;">
<path d="M112540 4050
L112440 4050
L112390 4070
L112370 4090
L112320 4170
L112300 4260
L112300 4460
L112320 4510
L112350 4530
L112390 4560
L112490 4560
L112540 4530
L112560 4510
L112590 4460
L112590 4340
L112560 4290
L112540 4260
L112490 4240
L112390 4240
L112350 4260
L112320 4290
L112300 4340
" />
</g>
<g style="fill:#840000; fill-opacity:0.0; 
stroke:#840000; stroke-width:100; stroke-opacity:1; 
stroke-linecap:round; stroke-linejoin:round;">
</g>
<g style="fill:#840000; fill-opacity:0.0; 
stroke:#840000; stroke-width:60; stroke-opacity:1; 
stroke-linecap:round; stroke-linejoin:round;">
<path d="M23620 77960
L23620 78740
" />
</g>
<g style="fill:#840000; fill-opacity:0.0; 
stroke:#840000; stroke-width:100; stroke-opacity:1; 
stroke-linecap:round; stroke-linejoin:round;">
</g>
<g style="fill:#840000; fill-opacity:0.0; 
stroke:#840000; stroke-width:60; stroke-opacity:1; 
stroke-linecap:round; stroke-linejoin:round;">
<path d="M43310 77960
L43310 78740
" />
</g>
<g style="fill:#840000; fill-opacity:0.0; 
stroke:#840000; stroke-width:100; stroke-opacity:1; 
stroke-linecap:round; stroke-linejoin:round;">
</g>
<g style="fill:#840000; fill-opacity:0.0; 
stroke:#840000; stroke-width:60; stroke-opacity:1; 
stroke-linecap:round; stroke-linejoin:round;">
<path d="M62990 77960
L62990 78740
" />
</g>
<g style="fill:#840000; fill-opacity:0.0; 
stroke:#840000; stroke-width:100; stroke-opacity:1; 
stroke-linecap:round; stroke-linejoin:round;">
</g>
<g style="fill:#840000; fill-opacity:0.0; 
stroke:#840000; stroke-width:60; stroke-opacity:1; 
stroke-linecap:round; stroke-linejoin:round;">
<path d="M82680 77960
L82680 78740
" />
</g>
<g style="fill:#840000; fill-opacity:0.0; 
stroke:#840000; stroke-width:100; stroke-opacity:1; 
stroke-linecap:round; stroke-linejoin:round;">
</g>
<g style="fill:#840000; fill-opacity:0.0; 
stroke:#840000; stroke-width:60; stroke-opacity:1; 
stroke-linecap:round; stroke-linejoin:round;">
<path d="M102360 77960
L102360 78740
" />
</g>
<g style="fill:#840000; fill-opacity:0.0; 
stroke:#840000; stroke-width:100; stroke-opacity:1; 
stroke-linecap:round; stroke-linejoin:round;">
</g>
<g style="fill:#840000; fill-opacity:0.0; 
stroke:#840000; stroke-width:60; stroke-opacity:1; 
stroke-linecap:round; stroke-linejoin:round;">
<path d="M14170 78580
L13880 78580
" />
<path d="M14020 78580
L14020 78070
L13970 78140
L13930 78190
L13880 78210
" />
</g>
<g style="fill:#840000; fill-opacity:0.0; 
stroke:#840000; stroke-width:100; stroke-opacity:1; 
stroke-linecap:round; stroke-linejoin:round;">
</g>
<g style="fill:#840000; fill-opacity:0.0; 
stroke:#840000; stroke-width:60; stroke-opacity:1; 
stroke-linecap:round; stroke-linejoin:round;">
<path d="M33560 78110
L33580 78090
L33630 78070
L33750 78070
L33800 78090
L33820 78110
L33850 78160
L33850 78210
L33820 78280
L33530 78580
L33850 78580
" />
</g>
<g style="fill:#840000; fill-opacity:0.0; 
stroke:#840000; stroke-width:100; stroke-opacity:1; 
stroke-linecap:round; stroke-linejoin:round;">
</g>
<g style="fill:#840000; fill-opacity:0.0; 
stroke:#840000; stroke-width:60; stroke-opacity:1; 
stroke-linecap:round; stroke-linejoin:round;">
<path d="M53220 78070
L53540 78070
L53370 78260
L53440 78260
L53490 78280
L53510 78310
L53540 78360
L53540 78480
L53510 78530
L53490 78550
L53440 78580
L53300 78580
L53250 78550
L53220 78530
" />
</g>
<g style="fill:#840000; fill-opacity:0.0; 
stroke:#840000; stroke-width:100; stroke-opacity:1; 
stroke-linecap:round; stroke-linejoin:round;">
</g>
<g style="fill:#840000; fill-opacity:0.0; 
stroke:#840000; stroke-width:60; stroke-opacity:1; 
stroke-linecap:round; stroke-linejoin:round;">
<path d="M73170 78240
L73170 78580
" />
<path d="M73050 78040
L72930 78410
L73240 78410
" />
</g>
<g style="fill:#840000; fill-opacity:0.0; 
stroke:#840000; stroke-width:100; stroke-opacity:1; 
stroke-linecap:round; stroke-linejoin:round;">
</g>
<g style="fill:#840000; fill-opacity:0.0; 
stroke:#840000; stroke-width:60; stroke-opacity:1; 
stroke-linecap:round; stroke-linejoin:round;">
<path d="M92880 78070
L92640 78070
L92620 78310
L92640 78280
L92690 78260
L92810 78260
L92860 78280
L92880 78310
L92910 78360
L92910 78480
L92880 78530
L92860 78550
L92810 78580
L92690 78580
L92640 78550
L92620 78530
" />
</g>
<g style="fill:#840000; fill-opacity:0.0; 
stroke:#840000; stroke-width:100; stroke-opacity:1; 
stroke-linecap:round; stroke-linejoin:round;">
</g>
<g style="fill:#840000; fill-opacity:0.0; 
stroke:#840000; stroke-width:60; stroke-opacity:1; 
stroke-linecap:round; stroke-linejoin:round;">
<path d="M112540 78070
L112440 78070
L112390 78090
L112370 78110
L112320 78190
L112300 78280
L112300 78480
L112320 78530
L112350 78550
L112390 78580
L112490 78580
L112540 78550
L112560 78530
L112590 78480
L112590 78360
L112560 78310
L112540 78280
L112490 78260
L112390 78260
L112350 78280
L112320 78310
L112300 78360
" />
</g>
<g style="fill:#840000; fill-opacity:0.0; 
stroke:#840000; stroke-width:100; stroke-opacity:1; 
stroke-linecap:round; stroke-linejoin:round;">
</g>
<g style="fill:#840000; fill-opacity:0.0; 
stroke:#840000; stroke-width:60; stroke-opacity:1; 
stroke-linecap:round; stroke-linejoin:round;">
<path d="M3940 23620
L4720 23620
" />
</g>
<g style="fill:#840000; fill-opacity:0.0; 
stroke:#840000; stroke-width:100; stroke-opacity:1; 
stroke-linecap:round; stroke-linejoin:round;">
</g>
<g style="fill:#840000; fill-opacity:0.0; 
stroke:#840000; stroke-width:60; stroke-opacity:1; 
stroke-linecap:round; stroke-linejoin:round;">
<path d="M3940 43310
L4720 43310
" />
</g>
<g style="fill:#840000; fill-opacity:0.0; 
stroke:#840000; stroke-width:100; stroke-opacity:1; 
stroke-linecap:round; stroke-linejoin:round;">
</g>
<g style="fill:#840000; fill-opacity:0.0; 
stroke:#840000; stroke-width:60; stroke-opacity:1; 
stroke-linecap:round; stroke-linejoin:round;">
<path d="M3940 62990
L4720 62990
" />
</g>
<g style="fill:#840000; fill-opacity:0.0; 
stroke:#840000; stroke-width:100; stroke-opacity:1; 
stroke-linecap:round; stroke-linejoin:round;">
</g>
<g style="fill:#840000; fill-opacity:0.0; 
stroke:#840000; stroke-width:60; stroke-opacity:1; 
stroke-linecap:round; stroke-linejoin:round;">
<path d="M4210 13860
L4450 13860
" />
<path d="M4160 14010
L4330 13500
L4500 14010
" />
</g>
<g style="fill:#840000; fill-opacity:0.0; 
stroke:#840000; stroke-width:100; stroke-opacity:1; 
stroke-linecap:round; stroke-linejoin:round;">
</g>
<g style="fill:#840000; fill-opacity:0.0; 
stroke:#840000; stroke-width:60; stroke-opacity:1; 
stroke-linecap:round; stroke-linejoin:round;">
<path d="M4370 33420
L4440 33440
L4470 33470
L4490 33520
L4490 33590
L4470 33640
L4440 33660
L4400 33690
L4200 33690
L4200 33180
L4370 33180
L4420 33200
L4440 33220
L4470 33270
L4470 33320
L4440 33370
L4420 33390
L4370 33420
L4200 33420
" />
</g>
<g style="fill:#840000; fill-opacity:0.0; 
stroke:#840000; stroke-width:100; stroke-opacity:1; 
stroke-linecap:round; stroke-linejoin:round;">
</g>
<g style="fill:#840000; fill-opacity:0.0; 
stroke:#840000; stroke-width:60; stroke-opacity:1; 
stroke-linecap:round; stroke-linejoin:round;">
<path d="M4490 53330
L4470 53350
L4400 53380
L4350 53380
L4270 53350
L4230 53300
L4200 53250
L4180 53160
L4180 53080
L4200 52990
L4230 52940
L4270 52890
L4350 52870
L4400 52870
L4470 52890
L4490 52910
" />
</g>
<g style="fill:#840000; fill-opacity:0.0; 
stroke:#840000; stroke-width:100; stroke-opacity:1; 
stroke-linecap:round; stroke-linejoin:round;">
</g>
<g style="fill:#840000; fill-opacity:0.0; 
stroke:#840000; stroke-width:60; stroke-opacity:1; 
stroke-linecap:round; stroke-linejoin:round;">
<path d="M4200 73060
L4200 72550
L4320 72550
L4400 72570
L4440 72620
L4470 72670
L4490 72760
L4490 72840
L4470 72930
L4440 72980
L4400 73030
L4320 73060
L4200 73060
" />
</g>
<g style="fill:#840000; fill-opacity:0.0; 
stroke:#840000; stroke-width:100; stroke-opacity:1; 
stroke-linecap:round; stroke-linejoin:round;">
</g>
<g style="fill:#840000; fill-opacity:0.0; 
stroke:#840000; stroke-width:60; stroke-opacity:1; 
stroke-linecap:round; stroke-linejoin:round;">
<path d="M112990 23620
L112210 23620
" />
</g>
<g style="fill:#840000; fill-opacity:0.0; 
stroke:#840000; stroke-width:100; stroke-opacity:1; 
stroke-linecap:round; stroke-linejoin:round;">
</g>
<g style="fill:#840000; fill-opacity:0.0; 
stroke:#840000; stroke-width:60; stroke-opacity:1; 
stroke-linecap:round; stroke-linejoin:round;">
<path d="M112990 43310
L112210 43310
" />
</g>
<g style="fill:#840000; fill-opacity:0.0; 
stroke:#840000; stroke-width:100; stroke-opacity:1; 
stroke-linecap:round; stroke-linejoin:round;">
</g>
<g style="fill:#840000; fill-opacity:0.0; 
stroke:#840000; stroke-width:60; stroke-opacity:1; 
stroke-linecap:round; stroke-linejoin:round;">
<path d="M112990 62990
L112210 62990
" />
</g>
<g style="fill:#840000; fill-opacity:0.0; 
stroke:#840000; stroke-width:100; stroke-opacity:1; 
stroke-linecap:round; stroke-linejoin:round;">
</g>
<g style="fill:#840000; fill-opacity:0.0; 
stroke:#840000; stroke-width:60; stroke-opacity:1; 
stroke-linecap:round; stroke-linejoin:round;">
<path d="M112480 13860
L112720 13860
" />
<path d="M112430 14010
L112600 13500
L112770 14010
" />
</g>
<g style="fill:#840000; fill-opacity:0.0; 
stroke:#840000; stroke-width:100; stroke-opacity:1; 
stroke-linecap:round; stroke-linejoin:round;">
</g>
<g style="fill:#840000; fill-opacity:0.0; 
stroke:#840000; stroke-width:60; stroke-opacity:1; 
stroke-linecap:round; stroke-linejoin:round;">
<path d="M112640 33420
L112710 33440
L112740 33470
L112760 33520
L112760 33590
L112740 33640
L112710 33660
L112670 33690
L112470 33690
L112470 33180
L112640 33180
L112690 33200
L112710 33220
L112740 33270
L112740 33320
L112710 33370
L112690 33390
L112640 33420
L112470 33420
" />
</g>
<g style="fill:#840000; fill-opacity:0.0; 
stroke:#840000; stroke-width:100; stroke-opacity:1; 
stroke-linecap:round; stroke-linejoin:round;">
</g>
<g style="fill:#840000; fill-opacity:0.0; 
stroke:#840000; stroke-width:60; stroke-opacity:1; 
stroke-linecap:round; stroke-linejoin:round;">
<path d="M112760 53330
L112740 53350
L112670 53380
L112620 53380
L112540 53350
L112500 53300
L112470 53250
L112450 53160
L112450 53080
L112470 52990
L112500 52940
L112540 52890
L112620 52870
L112670 52870
L112740 52890
L112760 52910
" />
</g>
<g style="fill:#840000; fill-opacity:0.0; 
stroke:#840000; stroke-width:100; stroke-opacity:1; 
stroke-linecap:round; stroke-linejoin:round;">
</g>
<g style="fill:#840000; fill-opacity:0.0; 
stroke:#840000; stroke-width:60; stroke-opacity:1; 
stroke-linecap:round; stroke-linejoin:round;">
<path d="M112470 73060
L112470 72550
L112590 72550
L112670 72570
L112710 72620
L112740 72670
L112760 72760
L112760 72840
L112740 72930
L112710 72980
L112670 73030
L112590 73060
L112470 73060
" />
</g>
<g style="fill:#840000; fill-opacity:0.0; 
stroke:#840000; stroke-width:100; stroke-opacity:1; 
stroke-linecap:round; stroke-linejoin:round;">
</g>
<g style="fill:#840000; fill-opacity:0.0; 
stroke:#840000; stroke-width:60; stroke-opacity:1; 
stroke-linecap:round; stroke-linejoin:round;">
<path d="M78880 76290
L78880 75700
L79020 75700
L79110 75730
L79160 75790
L79190 75840
L79220 75950
L79220 76040
L79190 76150
L79160 76210
L79110 76260
L79020 76290
L78880 76290
" />
<path d="M79720 76290
L79720 75980
L79700 75930
L79640 75900
L79530 75900
L79470 75930
" />
<path d="M79720 76260
L79670 76290
L79530 76290
L79470 76260
L79440 76210
L79440 76150
L79470 76100
L79530 76070
L79670 76070
L79720 76040
" />
<path d="M79920 75900
L80140 75900
" />
<path d="M80000 75700
L80000 76210
L80030 76260
L80080 76290
L80140 76290
" />
<path d="M80570 76260
L80510 76290
L80400 76290
L80340 76260
L80310 76210
L80310 75980
L80340 75930
L80400 75900
L80510 75900
L80570 75930
L80590 75980
L80590 76040
L80310 76100
" />
<path d="M80850 76240
L80880 76260
L80850 76290
L80820 76260
L80850 76240
L80850 76290
" />
<path d="M80850 75930
L80880 75950
L80850 75980
L80820 75950
L80850 75930
L80850 75980
" />
</g>
<g style="fill:#840000; fill-opacity:0.0; 
stroke:#840000; stroke-width:100; stroke-opacity:1; 
stroke-linecap:round; stroke-linejoin:round;">
</g>
<g style="fill:#840000; fill-opacity:0.0; 
stroke:#840000; stroke-width:60; stroke-opacity:1; 
stroke-linecap:round; stroke-linejoin:round;">
<path d="M69690 76580
L112210 76580
" />
</g>
<g style="fill:#840000; fill-opacity:0.0; 
stroke:#840000; stroke-width:100; stroke-opacity:1; 
stroke-linecap:round; stroke-linejoin:round;">
</g>
<g style="fill:#840000; fill-opacity:0.0; 
stroke:#840000; stroke-width:60; stroke-opacity:1; 
stroke-linecap:round; stroke-linejoin:round;">
<path d="M70220 77390
L70220 76800
" />
<path d="M70560 77390
L70300 77050
" />
<path d="M70560 76800
L70220 77140
" />
<path d="M70810 77390
L70810 77000
" />
<path d="M70810 76800
L70780 76830
L70810 76860
L70840 76830
L70810 76800
L70810 76860
" />
<path d="M71430 77340
L71400 77360
L71320 77390
L71260 77390
L71170 77360
L71120 77310
L71090 77250
L71060 77140
L71060 77050
L71090 76940
L71120 76890
L71170 76830
L71260 76800
L71320 76800
L71400 76830
L71430 76860
" />
<path d="M71930 77390
L71930 77080
L71910 77030
L71850 77000
L71740 77000
L71680 77030
" />
<path d="M71930 77360
L71880 77390
L71740 77390
L71680 77360
L71650 77310
L71650 77250
L71680 77200
L71740 77170
L71880 77170
L71930 77140
" />
<path d="M72460 77390
L72460 76800
" />
<path d="M72460 77360
L72410 77390
L72290 77390
L72240 77360
L72210 77340
L72180 77280
L72180 77110
L72210 77050
L72240 77030
L72290 77000
L72410 77000
L72460 77030
" />
<path d="M73190 77080
L73390 77080
" />
<path d="M73470 77390
L73190 77390
L73190 76800
L73470 76800
" />
<path d="M73720 77340
L73750 77360
L73720 77390
L73690 77360
L73720 77340
L73720 77390
" />
<path d="M74000 77390
L74000 76800
L74140 76800
L74230 76830
L74280 76890
L74310 76940
L74340 77050
L74340 77140
L74310 77250
L74280 77310
L74230 77360
L74140 77390
L74000 77390
" />
<path d="M74590 77340
L74620 77360
L74590 77390
L74560 77360
L74590 77340
L74590 77390
" />
<path d="M74840 77220
L75120 77220
" />
<path d="M74790 77390
L74980 76800
L75180 77390
" />
<path d="M75380 77340
L75410 77360
L75380 77390
L75350 77360
L75380 77340
L75380 77390
" />
<path d="M76560 77390
L76560 76800
" />
<path d="M76620 77170
L76790 77390
" />
<path d="M76790 77000
L76560 77220
" />
<path d="M77040 77390
L77040 77000
" />
<path d="M77040 76800
L77010 76830
L77040 76860
L77070 76830
L77040 76800
L77040 76860
" />
<path d="M77570 77360
L77520 77390
L77400 77390
L77350 77360
L77320 77340
L77290 77280
L77290 77110
L77320 77050
L77350 77030
L77400 77000
L77520 77000
L77570 77030
" />
<path d="M78080 77390
L78080 77080
L78060 77030
L78000 77000
L77890 77000
L77830 77030
" />
<path d="M78080 77360
L78030 77390
L77890 77390
L77830 77360
L77800 77310
L77800 77250
L77830 77200
L77890 77170
L78030 77170
L78080 77140
" />
<path d="M78610 77390
L78610 76800
" />
<path d="M78610 77360
L78560 77390
L78440 77390
L78390 77360
L78360 77340
L78330 77280
L78330 77110
L78360 77050
L78390 77030
L78440 77000
L78560 77000
L78610 77030
" />
<path d="M79590 77000
L79590 77390
" />
<path d="M79450 76770
L79310 77200
L79680 77200
" />
<path d="M79900 77340
L79930 77360
L79900 77390
L79870 77360
L79900 77340
L79900 77390
" />
<path d="M80290 76800
L80350 76800
L80410 76830
L80430 76860
L80460 76910
L80490 77030
L80490 77170
L80460 77280
L80430 77340
L80410 77360
L80350 77390
L80290 77390
L80240 77360
L80210 77340
L80180 77280
L80150 77170
L80150 77030
L80180 76910
L80210 76860
L80240 76830
L80290 76800
" />
<path d="M80740 77340
L80770 77360
L80740 77390
L80710 77360
L80740 77340
L80740 77390
" />
<path d="M80990 76860
L81020 76830
L81080 76800
L81220 76800
L81270 76830
L81300 76860
L81330 76910
L81330 76970
L81300 77050
L80960 77390
L81330 77390
" />
<path d="M81580 77170
L82030 77170
" />
<path d="M81810 77390
L81810 76940
" />
<path d="M82560 77390
L82560 76800
" />
<path d="M82560 77360
L82510 77390
L82390 77390
L82340 77360
L82310 77340
L82280 77280
L82280 77110
L82310 77050
L82340 77030
L82390 77000
L82510 77000
L82560 77030
" />
<path d="M82760 77000
L82980 77000
" />
<path d="M82840 77390
L82840 76890
L82870 76830
L82920 76800
L82980 76800
" />
<path d="M83150 77360
L83210 77390
L83320 77390
L83380 77360
L83410 77310
L83410 77280
L83380 77220
L83320 77200
L83240 77200
L83180 77170
L83150 77110
L83150 77080
L83180 77030
L83240 77000
L83320 77000
L83380 77030
" />
<path d="M83910 77000
L83910 77480
L83890 77530
L83860 77560
L83800 77590
L83720 77590
L83660 77560
" />
<path d="M83910 77360
L83860 77390
L83740 77390
L83690 77360
L83660 77340
L83630 77280
L83630 77110
L83660 77050
L83690 77030
L83740 77000
L83860 77000
L83910 77030
" />
<path d="M84500 77390
L84160 77390
" />
<path d="M84330 77390
L84330 76800
L84270 76890
L84220 76940
L84160 76970
" />
<path d="M84750 77170
L85200 77170
" />
<path d="M85450 77360
L85510 77390
L85620 77390
L85680 77360
L85710 77310
L85710 77280
L85680 77220
L85620 77200
L85540 77200
L85480 77170
L85450 77110
L85450 77080
L85480 77030
L85540 77000
L85620 77000
L85680 77030
" />
<path d="M85880 77000
L86100 77000
" />
<path d="M85960 76800
L85960 77310
L85990 77360
L86040 77390
L86100 77390
" />
<path d="M86550 77390
L86550 77080
L86530 77030
L86470 77000
L86360 77000
L86300 77030
" />
<path d="M86550 77360
L86500 77390
L86360 77390
L86300 77360
L86270 77310
L86270 77250
L86300 77200
L86360 77170
L86500 77170
L86550 77140
" />
<path d="M86830 77390
L86830 76800
" />
<path d="M86830 77030
L86890 77000
L87000 77000
L87060 77030
L87080 77050
L87110 77110
L87110 77280
L87080 77340
L87060 77360
L87000 77390
L86890 77390
L86830 77360
" />
<path d="M87440 77390
L87390 77360
L87360 77310
L87360 76800
" />
<path d="M87900 77360
L87840 77390
L87730 77390
L87670 77360
L87640 77310
L87640 77080
L87670 77030
L87730 77000
L87840 77000
L87900 77030
L87920 77080
L87920 77140
L87640 77200
" />
</g>
<g style="fill:#840000; fill-opacity:0.0; 
stroke:#840000; stroke-width:100; stroke-opacity:1; 
stroke-linecap:round; stroke-linejoin:round;">
</g>
<g style="fill:#840000; fill-opacity:0.0; 
stroke:#840000; stroke-width:60; stroke-opacity:1; 
stroke-linecap:round; stroke-linejoin:round;">
<path d="M69690 75400
L112210 75400
" />
</g>
<g style="fill:#840000; fill-opacity:0.0; 
stroke:#840000; stroke-width:100; stroke-opacity:1; 
stroke-linecap:round; stroke-linejoin:round;">
</g>
<g style="fill:#840000; fill-opacity:0.0; 
stroke:#840000; stroke-width:120; stroke-opacity:1; 
stroke-linecap:round; stroke-linejoin:round;">
<path d="M104020 76290
L103820 76010
" />
<path d="M103680 76290
L103680 75700
L103910 75700
L103960 75730
L103990 75760
L104020 75810
L104020 75900
L103990 75950
L103960 75980
L103910 76010
L103680 76010
" />
<path d="M104500 76260
L104440 76290
L104330 76290
L104270 76260
L104240 76210
L104240 75980
L104270 75930
L104330 75900
L104440 75900
L104500 75930
L104520 75980
L104520 76040
L104240 76100
" />
<path d="M104720 75900
L104860 76290
L105010 75900
" />
<path d="M105230 76240
L105260 76260
L105230 76290
L105200 76260
L105230 76240
L105230 76290
" />
<path d="M105230 75930
L105260 75950
L105230 75980
L105200 75950
L105230 75930
L105230 75980
" />
</g>
<g style="fill:#840000; fill-opacity:0.0; 
stroke:#840000; stroke-width:100; stroke-opacity:1; 
stroke-linecap:round; stroke-linejoin:round;">
</g>
<g style="fill:#840000; fill-opacity:0.0; 
stroke:#840000; stroke-width:60; stroke-opacity:1; 
stroke-linecap:round; stroke-linejoin:round;">
<path d="M70190 76260
L70280 76290
L70420 76290
L70470 76260
L70500 76240
L70530 76180
L70530 76120
L70500 76070
L70470 76040
L70420 76010
L70300 75980
L70250 75950
L70220 75930
L70190 75870
L70190 75810
L70220 75760
L70250 75730
L70300 75700
L70450 75700
L70530 75730
" />
<path d="M70780 76290
L70780 75900
" />
<path d="M70780 75700
L70750 75730
L70780 75760
L70810 75730
L70780 75700
L70780 75760
" />
<path d="M71000 75900
L71310 75900
L71000 76290
L71310 76290
" />
<path d="M71770 76260
L71710 76290
L71600 76290
L71540 76260
L71510 76210
L71510 75980
L71540 75930
L71600 75900
L71710 75900
L71770 75930
L71790 75980
L71790 76040
L71510 76100
" />
<path d="M72050 76240
L72080 76260
L72050 76290
L72020 76260
L72050 76240
L72050 76290
" />
<path d="M72050 75930
L72080 75950
L72050 75980
L72020 75950
L72050 75930
L72050 75980
" />
<path d="M72750 76120
L73030 76120
" />
<path d="M72700 76290
L72890 75700
L73090 76290
" />
<path d="M73540 75900
L73540 76290
" />
<path d="M73400 75670
L73260 76100
L73630 76100
" />
</g>
<g style="fill:#840000; fill-opacity:0.0; 
stroke:#840000; stroke-width:100; stroke-opacity:1; 
stroke-linecap:round; stroke-linejoin:round;">
</g>
<g style="fill:#840000; fill-opacity:0.0; 
stroke:#840000; stroke-width:60; stroke-opacity:1; 
stroke-linecap:round; stroke-linejoin:round;">
<path d="M103680 77390
L103680 76800
" />
<path d="M104210 77390
L104210 76800
" />
<path d="M104210 77360
L104160 77390
L104040 77390
L103990 77360
L103960 77340
L103930 77280
L103930 77110
L103960 77050
L103990 77030
L104040 77000
L104160 77000
L104210 77030
" />
<path d="M104490 77340
L104520 77360
L104490 77390
L104460 77360
L104490 77340
L104490 77390
" />
<path d="M104490 77030
L104520 77050
L104490 77080
L104460 77050
L104490 77030
L104490 77080
" />
<path d="M105190 76860
L105220 76830
L105280 76800
L105420 76800
L105470 76830
L105500 76860
L105530 76910
L105530 76970
L105500 77050
L105160 77390
L105530 77390
" />
<path d="M106200 76770
L105700 77530
" />
<path d="M106340 76800
L106710 76800
L106510 77030
L106600 77030
L106650 77050
L106680 77080
L106710 77140
L106710 77280
L106680 77340
L106650 77360
L106600 77390
L106430 77390
L106370 77360
L106340 77340
" />
</g>
<g style="fill:#840000; fill-opacity:0.0; 
stroke:#840000; stroke-width:100; stroke-opacity:1; 
stroke-linecap:round; stroke-linejoin:round;">
</g>
<g style="fill:#840000; fill-opacity:0.0; 
stroke:#840000; stroke-width:60; stroke-opacity:1; 
stroke-linecap:round; stroke-linejoin:round;">
<path d="M69690 73820
L112210 73820
" />
</g>
<g style="fill:#840000; fill-opacity:0.0; 
stroke:#840000; stroke-width:100; stroke-opacity:1; 
stroke-linecap:round; stroke-linejoin:round;">
</g>
<g style="fill:#840000; fill-opacity:0.0; 
stroke:#840000; stroke-width:160; stroke-opacity:1; 
stroke-linecap:round; stroke-linejoin:round;">
<path d="M70260 74090
L70710 74090
" />
<path d="M70390 74880
L70480 74090
" />
<path d="M70880 74880
L70940 74360
" />
<path d="M70970 74090
L70930 74130
L70960 74170
L71010 74130
L70970 74090
L70960 74170
" />
<path d="M71210 74360
L71510 74360
" />
<path d="M71350 74090
L71270 74770
L71300 74840
L71370 74880
L71450 74880
" />
<path d="M71820 74880
L71750 74840
L71720 74770
L71800 74090
" />
<path d="M72420 74840
L72340 74880
L72190 74880
L72120 74840
L72090 74770
L72130 74470
L72180 74390
L72250 74360
L72400 74360
L72480 74390
L72510 74470
L72500 74540
L72110 74620
" />
<path d="M72800 74810
L72840 74840
L72800 74880
L72760 74840
L72800 74810
L72800 74880
" />
<path d="M72860 74390
L72890 74430
L72850 74470
L72810 74430
L72860 74390
L72850 74470
" />
</g>
<g style="fill:#840000; fill-opacity:0.0; 
stroke:#840000; stroke-width:100; stroke-opacity:1; 
stroke-linecap:round; stroke-linejoin:round;">
</g>
<g style="fill:#840000; fill-opacity:0.0; 
stroke:#840000; stroke-width:60; stroke-opacity:1; 
stroke-linecap:round; stroke-linejoin:round;">
<path d="M70420 73060
L70220 73060
" />
<path d="M70220 73370
L70220 72780
L70500 72780
" />
<path d="M70730 73370
L70730 72980
" />
<path d="M70730 72780
L70700 72810
L70730 72840
L70760 72810
L70730 72780
L70730 72840
" />
<path d="M71090 73370
L71040 73340
L71010 73290
L71010 72780
" />
<path d="M71550 73340
L71490 73370
L71380 73370
L71320 73340
L71290 73290
L71290 73060
L71320 73010
L71380 72980
L71490 72980
L71550 73010
L71570 73060
L71570 73120
L71290 73180
" />
<path d="M71830 73320
L71860 73340
L71830 73370
L71800 73340
L71830 73320
L71830 73370
" />
<path d="M71830 73010
L71860 73030
L71830 73060
L71800 73030
L71830 73010
L71830 73060
" />
<path d="M72670 72780
L72790 72780
L72840 72810
L72900 72870
L72930 72980
L72930 73180
L72900 73290
L72840 73340
L72790 73370
L72670 73370
L72620 73340
L72560 73290
L72530 73180
L72530 72980
L72560 72870
L72620 72810
L72670 72780
" />
<path d="M73150 73340
L73240 73370
L73380 73370
L73430 73340
L73460 73320
L73490 73260
L73490 73200
L73460 73150
L73430 73120
L73380 73090
L73260 73060
L73210 73030
L73180 73010
L73150 72950
L73150 72890
L73180 72840
L73210 72810
L73260 72780
L73410 72780
L73490 72810
" />
<path d="M73710 73340
L73800 73370
L73940 73370
L73990 73340
L74020 73320
L74050 73260
L74050 73200
L74020 73150
L73990 73120
L73940 73090
L73820 73060
L73770 73030
L73740 73010
L73710 72950
L73710 72890
L73740 72840
L73770 72810
L73820 72780
L73970 72780
L74050 72810
" />
<path d="M74300 73320
L74330 73340
L74300 73370
L74270 73340
L74300 73320
L74300 73370
" />
<path d="M74550 73340
L74610 73370
L74720 73370
L74780 73340
L74810 73290
L74810 73260
L74780 73200
L74720 73180
L74640 73180
L74580 73150
L74550 73090
L74550 73060
L74580 73010
L74640 72980
L74720 72980
L74780 73010
" />
<path d="M75310 73340
L75260 73370
L75140 73370
L75090 73340
L75060 73320
L75030 73260
L75030 73090
L75060 73030
L75090 73010
L75140 72980
L75260 72980
L75310 73010
" />
<path d="M75570 73370
L75570 72780
" />
<path d="M75820 73370
L75820 73060
L75800 73010
L75740 72980
L75650 72980
L75600 73010
L75570 73030
" />
</g>
<g style="fill:#840000; fill-opacity:0.0; 
stroke:#840000; stroke-width:100; stroke-opacity:1; 
stroke-linecap:round; stroke-linejoin:round;">
</g>
<g style="fill:#840000; fill-opacity:0.0; 
stroke:#840000; stroke-width:60; stroke-opacity:1; 
stroke-linecap:round; stroke-linejoin:round;">
<path d="M69690 71460
L112210 71460
" />
</g>
<g style="fill:#840000; fill-opacity:0.0; 
stroke:#840000; stroke-width:100; stroke-opacity:1; 
stroke-linecap:round; stroke-linejoin:round;">
</g>
<g style="fill:#840000; fill-opacity:0.0; 
stroke:#840000; stroke-width:60; stroke-opacity:1; 
stroke-linecap:round; stroke-linejoin:round;">
<path d="M70190 72280
L70280 72310
L70420 72310
L70470 72280
L70500 72260
L70530 72200
L70530 72140
L70500 72090
L70470 72060
L70420 72030
L70300 72000
L70250 71970
L70220 71950
L70190 71890
L70190 71830
L70220 71780
L70250 71750
L70300 71720
L70450 71720
L70530 71750
" />
<path d="M70780 72310
L70780 71720
" />
<path d="M71030 72310
L71030 72000
L71010 71950
L70950 71920
L70860 71920
L70810 71950
L70780 71970
" />
<path d="M71540 72280
L71480 72310
L71370 72310
L71310 72280
L71280 72230
L71280 72000
L71310 71950
L71370 71920
L71480 71920
L71540 71950
L71560 72000
L71560 72060
L71280 72120
" />
<path d="M72050 72280
L71990 72310
L71880 72310
L71820 72280
L71790 72230
L71790 72000
L71820 71950
L71880 71920
L71990 71920
L72050 71950
L72070 72000
L72070 72060
L71790 72120
" />
<path d="M72250 71920
L72470 71920
" />
<path d="M72330 71720
L72330 72230
L72360 72280
L72410 72310
L72470 72310
" />
<path d="M72670 72260
L72700 72280
L72670 72310
L72640 72280
L72670 72260
L72670 72310
" />
<path d="M72670 71950
L72700 71970
L72670 72000
L72640 71970
L72670 71950
L72670 72000
" />
<path d="M73820 71690
L73320 72450
" />
<path d="M74130 71720
L74250 71720
L74300 71750
L74360 71810
L74390 71920
L74390 72120
L74360 72230
L74300 72280
L74250 72310
L74130 72310
L74080 72280
L74020 72230
L73990 72120
L73990 71920
L74020 71810
L74080 71750
L74130 71720
" />
<path d="M74610 72280
L74700 72310
L74840 72310
L74890 72280
L74920 72260
L74950 72200
L74950 72140
L74920 72090
L74890 72060
L74840 72030
L74720 72000
L74670 71970
L74640 71950
L74610 71890
L74610 71830
L74640 71780
L74670 71750
L74720 71720
L74870 71720
L74950 71750
" />
<path d="M75170 72280
L75260 72310
L75400 72310
L75450 72280
L75480 72260
L75510 72200
L75510 72140
L75480 72090
L75450 72060
L75400 72030
L75280 72000
L75230 71970
L75200 71950
L75170 71890
L75170 71830
L75200 71780
L75230 71750
L75280 71720
L75430 71720
L75510 71750
" />
<path d="M76070 72310
L75730 72310
" />
<path d="M75900 72310
L75900 71720
L75840 71810
L75790 71860
L75730 71890
" />
<path d="M76740 71690
L76240 72450
" />
</g>
<g style="fill:#840000; fill-opacity:0.0; 
stroke:#840000; stroke-width:100; stroke-opacity:1; 
stroke-linecap:round; stroke-linejoin:round;">
</g>
<g style="fill:#840000; fill-opacity:0.0; 
stroke:#840000; stroke-width:60; stroke-opacity:1; 
stroke-linecap:round; stroke-linejoin:round;">
<path d="M77560 75400
L77560 76580
" />
</g>
<g style="fill:#840000; fill-opacity:0.0; 
stroke:#840000; stroke-width:100; stroke-opacity:1; 
stroke-linecap:round; stroke-linejoin:round;">
</g>
<g style="fill:#840000; fill-opacity:0.0; 
stroke:#840000; stroke-width:60; stroke-opacity:1; 
stroke-linecap:round; stroke-linejoin:round;">
<path d="M102760 75400
L102760 77960
" />
</g>
<g style="fill:#840000; fill-opacity:0.0; 
stroke:#840000; stroke-width:0; stroke-opacity:1; 
stroke-linecap:round; stroke-linejoin:round;">
</g>
<g style="fill:#840000; fill-opacity:0.0; 
stroke:#840000; stroke-width:60; stroke-opacity:1; 
stroke-linecap:round; stroke-linejoin:round;">
<path d="M49520.9 32999.9 A2000 2000 0.0 0 0 49520.9 29000.1 " />
<polyline fill="none;"
points="49500,29000
45500,29000
45500,33000
49500,33000
" /> 
<path d="M45500 30000
L42500 30000
" />
<path d="M44140 29880
L43860 29880
" />
<path d="M44000 29880
L44000 29380
L43950 29450
L43900 29500
L43860 29520
" />
<path d="M45500 32000
L42500 32000
" />
<path d="M43860 31420
L43880 31400
L43930 31380
L44050 31380
L44090 31400
L44120 31420
L44140 31470
L44140 31520
L44120 31590
L43830 31880
L44140 31880
" />
<circle cx="51750" cy="31000" r="250" /> 
<path d="M52000 31000
L54500 31000
" />
<path d="M52830 30380
L53140 30380
L52970 30570
L53050 30570
L53090 30590
L53120 30610
L53140 30660
L53140 30780
L53120 30830
L53090 30850
L53050 30880
L52900 30880
L52860 30850
L52830 30830
" />
</g>
<g style="fill:#008484; fill-opacity:0.0; 
stroke:#008484; stroke-width:60; stroke-opacity:1; 
stroke-linecap:round; stroke-linejoin:round;">
<path d="M47910 30200
L47910 30600
L47930 30650
L47960 30670
L48000 30700
L48100 30700
L48150 30670
L48170 30650
L48190 30600
L48190 30200
" />
<path d="M48410 30240
L48430 30220
L48480 30200
L48600 30200
L48640 30220
L48670 30240
L48690 30290
L48690 30340
L48670 30410
L48380 30700
L48690 30700
" />
<path d="M48890 30550
L49120 30550
" />
<path d="M48840 30700
L49000 30200
L49170 30700
" />
<path d="M47870 31360
L47870 31700
" />
<path d="M47750 31170
L47640 31530
L47940 31530
" />
<path d="M48230 31200
L48280 31200
L48330 31220
L48350 31240
L48380 31290
L48400 31390
L48400 31510
L48380 31600
L48350 31650
L48330 31670
L48280 31700
L48230 31700
L48190 31670
L48160 31650
L48140 31600
L48120 31510
L48120 31390
L48140 31290
L48160 31240
L48190 31220
L48230 31200
" />
<path d="M48640 31700
L48740 31700
L48790 31670
L48810 31650
L48860 31580
L48880 31480
L48880 31290
L48860 31240
L48830 31220
L48790 31200
L48690 31200
L48640 31220
L48620 31240
L48600 31290
L48600 31410
L48620 31460
L48640 31480
L48690 31510
L48790 31510
L48830 31480
L48860 31460
L48880 31410
" />
<path d="M49050 31200
L49360 31200
L49190 31390
L49270 31390
L49310 31410
L49340 31430
L49360 31480
L49360 31600
L49340 31650
L49310 31670
L49270 31700
L49120 31700
L49080 31670
L49050 31650
" />
</g>
<g style="fill:#848400; fill-opacity:0.0; 
stroke:#848400; stroke-width:60; stroke-opacity:1; 
stroke-linecap:round; stroke-linejoin:round;">
<path d="M38460 30270
L38460 29670
" />
<path d="M38750 30270
L38750 29670
L39100 30270
L39100 29670
" />
</g>
<g style="fill:#848400; fill-opacity:0.0; 
stroke:#848400; stroke-width:100; stroke-opacity:1; 
stroke-linecap:round; stroke-linejoin:round;">
<polyline fill="none;"
points="40000,30000
39700,29700
39400,29700
39400,30300
39700,30300
40000,30000
" /> 
</g>
<g style="fill:#848400; fill-opacity:0.0; 
stroke:#848400; stroke-width:0; stroke-opacity:1; 
stroke-linecap:round; stroke-linejoin:round;">
</g>
<g style="fill:#840000; fill-opacity:0.0; 
stroke:#840000; stroke-width:0; stroke-opacity:1; 
stroke-linecap:round; stroke-linejoin:round;">
</g>
<g style="fill:#840000; fill-opacity:0.0; 
stroke:#840000; stroke-width:60; stroke-opacity:1; 
stroke-linecap:round; stroke-linejoin:round;">
<rect x="51000" y="37600" width="2000" height="800" rx="0" />
</g>
<g style="fill:#840000; fill-opacity:1.0; 
stroke:#840000; stroke-width:60; stroke-opacity:1; 
stroke-linecap:round; stroke-linejoin:round;">
<polyline style="fill-rule:evenodd;"
points="52000,37600
51800,37400
52200,37400
" /> 
</g>
<g style="fill:#840000; fill-opacity:0.0; 
stroke:#840000; stroke-width:60; stroke-opacity:1; 
stroke-linecap:round; stroke-linejoin:round;">
<path d="M51000 38000
L50500 38000
" />
<path d="M50860 37880
L50640 37880
" />
<path d="M50750 37880
L50750 37480
L50710 37540
L50670 37580
L50640 37600
" />
<path d="M52000 37500
L52000 36500
" />
<path d="M51520 37110
L51500 37090
L51480 37060
L51480 36960
L51500 36920
L51520 36900
L51560 36890
L51600 36890
L51650 36900
L51880 37130
L51880 36890
" />
<path d="M53000 38000
L53500 38000
" />
<path d="M53120 37480
L53360 37480
L53230 37630
L53290 37630
L53330 37650
L53350 37670
L53360 37710
L53360 37800
L53350 37840
L53330 37860
L53290 37880
L53170 37880
L53140 37860
L53120 37840
" />
</g>
<g style="fill:#008484; fill-opacity:0.0; 
stroke:#008484; stroke-width:60; stroke-opacity:1; 
stroke-linecap:round; stroke-linejoin:round;">
<path d="M50830 38970
L50900 39000
L51020 39000
L51060 38970
L51090 38950
L51110 38900
L51110 38850
L51090 38810
L51060 38780
L51020 38760
L50920 38730
L50870 38710
L50850 38690
L50830 38640
L50830 38590
L50850 38540
L50870 38520
L50920 38500
L51040 38500
L51110 38520
" />
<path d="M51570 39000
L51330 39000
L51330 38500
" />
<path d="M51730 39000
L51730 38500
" />
<path d="M51970 39000
L51970 38500
L52090 38500
L52160 38520
L52210 38570
L52230 38620
L52250 38710
L52250 38780
L52230 38880
L52210 38920
L52160 38970
L52090 39000
L51970 39000
" />
<path d="M52470 38730
L52640 38730
" />
<path d="M52710 39000
L52470 39000
L52470 38500
L52710 38500
" />
<path d="M53180 39000
L52900 39000
" />
<path d="M53040 39000
L53040 38500
L52990 38570
L52940 38620
L52900 38640
" />
<path d="M51860 38200
L51580 38200
" />
<path d="M51720 38200
L51720 37700
L51670 37770
L51620 37820
L51580 37840
" />
<path d="M52080 38200
L52080 37700
L52250 38050
L52410 37700
L52410 38200
" />
</g>
<g style="fill:#008484; fill-opacity:0.0; 
stroke:#008484; stroke-width:0; stroke-opacity:1; 
stroke-linecap:round; stroke-linejoin:round;">
</g>
<g style="fill:#840000; fill-opacity:0.0; 
stroke:#840000; stroke-width:0; stroke-opacity:1; 
stroke-linecap:round; stroke-linejoin:round;">
</g>
<g style="fill:#840000; fill-opacity:0.0; 
stroke:#840000; stroke-width:100; stroke-opacity:1; 
stroke-linecap:round; stroke-linejoin:round;">
<rect x="44500" y="37600" width="2000" height="800" rx="0" />
</g>
<g style="fill:#840000; fill-opacity:0.0; 
stroke:#840000; stroke-width:60; stroke-opacity:1; 
stroke-linecap:round; stroke-linejoin:round;">
<path d="M46500 38000
L47000 38000
" />
<path d="M44500 38000
L44000 38000
" />
</g>
<g style="fill:#008484; fill-opacity:0.0; 
stroke:#008484; stroke-width:60; stroke-opacity:1; 
stroke-linecap:round; stroke-linejoin:round;">
<path d="M45410 39000
L45250 38760
" />
<path d="M45130 39000
L45130 38500
L45320 38500
L45370 38520
L45390 38540
L45410 38590
L45410 38660
L45390 38710
L45370 38730
L45320 38760
L45130 38760
" />
<path d="M45700 38710
L45650 38690
L45630 38660
L45610 38620
L45610 38590
L45630 38540
L45650 38520
L45700 38500
L45800 38500
L45840 38520
L45870 38540
L45890 38590
L45890 38620
L45870 38660
L45840 38690
L45800 38710
L45700 38710
L45650 38730
L45630 38760
L45610 38810
L45610 38900
L45630 38950
L45650 38970
L45700 39000
L45800 39000
L45840 38970
L45870 38950
L45890 38900
L45890 38810
L45870 38760
L45840 38730
L45800 38710
" />
<path d="M44840 37700
L45150 37700
L44980 37890
L45060 37890
L45100 37910
L45130 37930
L45150 37980
L45150 38100
L45130 38150
L45100 38170
L45060 38200
L44910 38200
L44870 38170
L44840 38150
" />
<path d="M45370 38200
L45370 37700
" />
<path d="M45650 38200
L45440 37910
" />
<path d="M45650 37700
L45370 37980
" />
<path d="M45890 38200
L45990 38200
L46040 38170
L46060 38150
L46110 38080
L46130 37980
L46130 37790
L46110 37740
L46080 37720
L46040 37700
L45940 37700
L45890 37720
L45870 37740
L45850 37790
L45850 37910
L45870 37960
L45890 37980
L45940 38010
L46040 38010
L46080 37980
L46110 37960
L46130 37910
" />
</g>
<g style="fill:#008400; fill-opacity:0.0; 
stroke:#008400; stroke-width:60; stroke-opacity:1; 
stroke-linecap:round; stroke-linejoin:round;">
<path d="M53500 38000
L55500 38000
" />
<path d="M55500 38000
L55500 31000
" />
<path d="M54500 31000
L58500 31000
" />
</g>
<g style="fill:#008400; fill-opacity:0.0; 
stroke:#008400; stroke-width:0; stroke-opacity:1; 
stroke-linecap:round; stroke-linejoin:round;">
</g>
<g style="fill:#008400; fill-opacity:1.0; 
stroke:#008400; stroke-width:100; stroke-opacity:1; 
stroke-linecap:round; stroke-linejoin:round;">
<circle cx="55500" cy="31000" r="200" /> 
</g>
<g style="fill:#008400; fill-opacity:1.0; 
stroke:#008400; stroke-width:60; stroke-opacity:1; 
stroke-linecap:round; stroke-linejoin:round;">
</g>
<g style="fill:#008400; fill-opacity:0.0; 
stroke:#008400; stroke-width:60; stroke-opacity:1; 
stroke-linecap:round; stroke-linejoin:round;">
<path d="M52000 36500
L52000 35000
" />
<path d="M52000 35000
L49000 35000
" />
<path d="M49000 35000
L49000 38000
" />
<path d="M47000 38000
L50500 38000
" />
</g>
<g style="fill:#008400; fill-opacity:0.0; 
stroke:#008400; stroke-width:0; stroke-opacity:1; 
stroke-linecap:round; stroke-linejoin:round;">
</g>
<g style="fill:#008400; fill-opacity:1.0; 
stroke:#008400; stroke-width:100; stroke-opacity:1; 
stroke-linecap:round; stroke-linejoin:round;">
<circle cx="49000" cy="38000" r="200" /> 
</g>
<g style="fill:#008400; fill-opacity:1.0; 
stroke:#008400; stroke-width:60; stroke-opacity:1; 
stroke-linecap:round; stroke-linejoin:round;">
</g>
<g style="fill:#008400; fill-opacity:0.0; 
stroke:#008400; stroke-width:60; stroke-opacity:1; 
stroke-linecap:round; stroke-linejoin:round;">
<path d="M44000 38000
L41500 38000
" />
<path d="M41500 32000
L41500 39000
" />
<path d="M41500 32000
L42500 32000
" />
</g>
<g style="fill:#008400; fill-opacity:0.0; 
stroke:#008400; stroke-width:0; stroke-opacity:1; 
stroke-linecap:round; stroke-linejoin:round;">
</g>
<g style="fill:#008400; fill-opacity:1.0; 
stroke:#008400; stroke-width:100; stroke-opacity:1; 
stroke-linecap:round; stroke-linejoin:round;">
<circle cx="41500" cy="38000" r="200" /> 
</g>
<g style="fill:#008400; fill-opacity:1.0; 
stroke:#008400; stroke-width:0; stroke-opacity:1; 
stroke-linecap:round; stroke-linejoin:round;">
</g>
<g style="fill:#840000; fill-opacity:1.0; 
stroke:#840000; stroke-width:0; stroke-opacity:1; 
stroke-linecap:round; stroke-linejoin:round;">
</g>
<g style="fill:#840000; fill-opacity:0.0; 
stroke:#840000; stroke-width:60; stroke-opacity:1; 
stroke-linecap:round; stroke-linejoin:round;">
<polyline fill="none;"
points="41500,42500
41500,43000
42000,43000
41500,43500
41000,43000
41500,43000
" /> 
</g>
<g style="fill:#008484; fill-opacity:0.0; 
stroke:#008484; stroke-width:60; stroke-opacity:1; 
stroke-linecap:round; stroke-linejoin:round;">
<path d="M41120 43720
L41070 43700
L41000 43700
L40930 43720
L40880 43770
L40860 43820
L40840 43910
L40840 43980
L40860 44080
L40880 44120
L40930 44170
L41000 44200
L41050 44200
L41120 44170
L41140 44150
L41140 43980
L41050 43980
" />
<path d="M41360 44200
L41360 43700
L41640 44200
L41640 43700
" />
<path d="M41880 44200
L41880 43700
L42000 43700
L42070 43720
L42120 43770
L42140 43820
L42160 43910
L42160 43980
L42140 44080
L42120 44120
L42070 44170
L42000 44200
L41880 44200
" />
</g>
<g style="fill:#008400; fill-opacity:0.0; 
stroke:#008400; stroke-width:60; stroke-opacity:1; 
stroke-linecap:round; stroke-linejoin:round;">
<path d="M41500 42500
L41500 42000
" />
<path d="M42500 30000
L40000 30000
" />
</g>
<g style="fill:#008400; fill-opacity:0.0; 
stroke:#008400; stroke-width:0; stroke-opacity:1; 
stroke-linecap:round; stroke-linejoin:round;">
</g>
<g style="fill:#840000; fill-opacity:0.0; 
stroke:#840000; stroke-width:0; stroke-opacity:1; 
stroke-linecap:round; stroke-linejoin:round;">
</g>
<g style="fill:#840000; fill-opacity:0.0; 
stroke:#840000; stroke-width:60; stroke-opacity:1; 
stroke-linecap:round; stroke-linejoin:round;">
<path d="M65520.9 33999.9 A2000 2000 0.0 0 0 65520.9 30000.1 " />
<polyline fill="none;"
points="65500,30000
61500,30000
61500,34000
65500,34000
" /> 
<circle cx="67750" cy="32000" r="250" /> 
<path d="M68000 32000
L70500 32000
" />
<path d="M69090 31540
L69090 31880
" />
<path d="M68970 31350
L68860 31710
L69160 31710
" />
<path d="M61500 31000
L58500 31000
" />
<path d="M60120 30380
L59880 30380
L59860 30610
L59880 30590
L59930 30570
L60050 30570
L60090 30590
L60120 30610
L60140 30660
L60140 30780
L60120 30830
L60090 30850
L60050 30880
L59930 30880
L59880 30850
L59860 30830
" />
<path d="M61500 33000
L58500 33000
" />
<path d="M60090 32380
L60000 32380
L59950 32400
L59930 32420
L59880 32500
L59860 32590
L59860 32780
L59880 32830
L59900 32850
L59950 32880
L60050 32880
L60090 32850
L60120 32830
L60140 32780
L60140 32660
L60120 32610
L60090 32590
L60050 32570
L59950 32570
L59900 32590
L59880 32610
L59860 32660
" />
</g>
<g style="fill:#008484; fill-opacity:0.0; 
stroke:#008484; stroke-width:60; stroke-opacity:1; 
stroke-linecap:round; stroke-linejoin:round;">
<path d="M63870 31200
L63870 31600
L63890 31650
L63920 31670
L63960 31700
L64060 31700
L64110 31670
L64130 31650
L64150 31600
L64150 31200
" />
<path d="M64370 31240
L64390 31220
L64440 31200
L64560 31200
L64600 31220
L64630 31240
L64650 31290
L64650 31340
L64630 31410
L64340 31700
L64650 31700
" />
<path d="M65040 31430
L65110 31460
L65130 31480
L65150 31530
L65150 31600
L65130 31650
L65110 31670
L65060 31700
L64870 31700
L64870 31200
L65040 31200
L65080 31220
L65110 31240
L65130 31290
L65130 31340
L65110 31390
L65080 31410
L65040 31430
L64870 31430
" />
<path d="M63870 32360
L63870 32700
" />
<path d="M63750 32170
L63640 32530
L63940 32530
" />
<path d="M64230 32200
L64280 32200
L64330 32220
L64350 32240
L64380 32290
L64400 32390
L64400 32510
L64380 32600
L64350 32650
L64330 32670
L64280 32700
L64230 32700
L64190 32670
L64160 32650
L64140 32600
L64120 32510
L64120 32390
L64140 32290
L64160 32240
L64190 32220
L64230 32200
" />
<path d="M64640 32700
L64740 32700
L64790 32670
L64810 32650
L64860 32580
L64880 32480
L64880 32290
L64860 32240
L64830 32220
L64790 32200
L64690 32200
L64640 32220
L64620 32240
L64600 32290
L64600 32410
L64620 32460
L64640 32480
L64690 32510
L64790 32510
L64830 32480
L64860 32460
L64880 32410
" />
<path d="M65050 32200
L65360 32200
L65190 32390
L65270 32390
L65310 32410
L65340 32430
L65360 32480
L65360 32600
L65340 32650
L65310 32670
L65270 32700
L65120 32700
L65080 32670
L65050 32650
" />
</g>
<g style="fill:#008484; fill-opacity:0.0; 
stroke:#008484; stroke-width:0; stroke-opacity:1; 
stroke-linecap:round; stroke-linejoin:round;">
</g>
<g style="fill:#840000; fill-opacity:0.0; 
stroke:#840000; stroke-width:0; stroke-opacity:1; 
stroke-linecap:round; stroke-linejoin:round;">
</g>
<g style="fill:#840000; fill-opacity:0.0; 
stroke:#840000; stroke-width:60; stroke-opacity:1; 
stroke-linecap:round; stroke-linejoin:round;">
<rect x="67000" y="37600" width="2000" height="800" rx="0" />
</g>
<g style="fill:#840000; fill-opacity:1.0; 
stroke:#840000; stroke-width:60; stroke-opacity:1; 
stroke-linecap:round; stroke-linejoin:round;">
<polyline style="fill-rule:evenodd;"
points="68000,37600
67800,37400
68200,37400
" /> 
</g>
<g style="fill:#840000; fill-opacity:0.0; 
stroke:#840000; stroke-width:60; stroke-opacity:1; 
stroke-linecap:round; stroke-linejoin:round;">
<path d="M67000 38000
L66500 38000
" />
<path d="M66860 37880
L66640 37880
" />
<path d="M66750 37880
L66750 37480
L66710 37540
L66670 37580
L66640 37600
" />
<path d="M68000 37500
L68000 36500
" />
<path d="M67520 37110
L67500 37090
L67480 37060
L67480 36960
L67500 36920
L67520 36900
L67560 36890
L67600 36890
L67650 36900
L67880 37130
L67880 36890
" />
<path d="M69000 38000
L69500 38000
" />
<path d="M69120 37480
L69360 37480
L69230 37630
L69290 37630
L69330 37650
L69350 37670
L69360 37710
L69360 37800
L69350 37840
L69330 37860
L69290 37880
L69170 37880
L69140 37860
L69120 37840
" />
</g>
<g style="fill:#008484; fill-opacity:0.0; 
stroke:#008484; stroke-width:60; stroke-opacity:1; 
stroke-linecap:round; stroke-linejoin:round;">
<path d="M66830 38970
L66900 39000
L67020 39000
L67060 38970
L67090 38950
L67110 38900
L67110 38850
L67090 38810
L67060 38780
L67020 38760
L66920 38730
L66870 38710
L66850 38690
L66830 38640
L66830 38590
L66850 38540
L66870 38520
L66920 38500
L67040 38500
L67110 38520
" />
<path d="M67570 39000
L67330 39000
L67330 38500
" />
<path d="M67730 39000
L67730 38500
" />
<path d="M67970 39000
L67970 38500
L68090 38500
L68160 38520
L68210 38570
L68230 38620
L68250 38710
L68250 38780
L68230 38880
L68210 38920
L68160 38970
L68090 39000
L67970 39000
" />
<path d="M68470 38730
L68640 38730
" />
<path d="M68710 39000
L68470 39000
L68470 38500
L68710 38500
" />
<path d="M68900 38540
L68920 38520
L68970 38500
L69090 38500
L69130 38520
L69160 38540
L69180 38590
L69180 38640
L69160 38710
L68870 39000
L69180 39000
" />
<path d="M67860 38200
L67580 38200
" />
<path d="M67720 38200
L67720 37700
L67670 37770
L67620 37820
L67580 37840
" />
<path d="M68080 38200
L68080 37700
L68250 38050
L68410 37700
L68410 38200
" />
</g>
<g style="fill:#008484; fill-opacity:0.0; 
stroke:#008484; stroke-width:0; stroke-opacity:1; 
stroke-linecap:round; stroke-linejoin:round;">
</g>
<g style="fill:#840000; fill-opacity:0.0; 
stroke:#840000; stroke-width:0; stroke-opacity:1; 
stroke-linecap:round; stroke-linejoin:round;">
</g>
<g style="fill:#840000; fill-opacity:0.0; 
stroke:#840000; stroke-width:100; stroke-opacity:1; 
stroke-linecap:round; stroke-linejoin:round;">
<rect x="60500" y="37600" width="2000" height="800" rx="0" />
</g>
<g style="fill:#840000; fill-opacity:0.0; 
stroke:#840000; stroke-width:60; stroke-opacity:1; 
stroke-linecap:round; stroke-linejoin:round;">
<path d="M62500 38000
L63000 38000
" />
<path d="M60500 38000
L60000 38000
" />
</g>
<g style="fill:#008484; fill-opacity:0.0; 
stroke:#008484; stroke-width:60; stroke-opacity:1; 
stroke-linecap:round; stroke-linejoin:round;">
<path d="M61410 39000
L61250 38760
" />
<path d="M61130 39000
L61130 38500
L61320 38500
L61370 38520
L61390 38540
L61410 38590
L61410 38660
L61390 38710
L61370 38730
L61320 38760
L61130 38760
" />
<path d="M61650 39000
L61750 39000
L61800 38970
L61820 38950
L61870 38880
L61890 38780
L61890 38590
L61870 38540
L61840 38520
L61800 38500
L61700 38500
L61650 38520
L61630 38540
L61610 38590
L61610 38710
L61630 38760
L61650 38780
L61700 38810
L61800 38810
L61840 38780
L61870 38760
L61890 38710
" />
<path d="M60840 37700
L61150 37700
L60980 37890
L61060 37890
L61100 37910
L61130 37930
L61150 37980
L61150 38100
L61130 38150
L61100 38170
L61060 38200
L60910 38200
L60870 38170
L60840 38150
" />
<path d="M61370 38200
L61370 37700
" />
<path d="M61650 38200
L61440 37910
" />
<path d="M61650 37700
L61370 37980
" />
<path d="M61890 38200
L61990 38200
L62040 38170
L62060 38150
L62110 38080
L62130 37980
L62130 37790
L62110 37740
L62080 37720
L62040 37700
L61940 37700
L61890 37720
L61870 37740
L61850 37790
L61850 37910
L61870 37960
L61890 37980
L61940 38010
L62040 38010
L62080 37980
L62110 37960
L62130 37910
" />
</g>
<g style="fill:#008400; fill-opacity:0.0; 
stroke:#008400; stroke-width:60; stroke-opacity:1; 
stroke-linecap:round; stroke-linejoin:round;">
<path d="M69500 38000
L71500 38000
" />
<path d="M71500 38000
L71500 32000
" />
<path d="M70500 32000
L72500 32000
" />
</g>
<g style="fill:#008400; fill-opacity:0.0; 
stroke:#008400; stroke-width:0; stroke-opacity:1; 
stroke-linecap:round; stroke-linejoin:round;">
</g>
<g style="fill:#008400; fill-opacity:1.0; 
stroke:#008400; stroke-width:100; stroke-opacity:1; 
stroke-linecap:round; stroke-linejoin:round;">
<circle cx="71500" cy="32000" r="200" /> 
</g>
<g style="fill:#008400; fill-opacity:1.0; 
stroke:#008400; stroke-width:60; stroke-opacity:1; 
stroke-linecap:round; stroke-linejoin:round;">
</g>
<g style="fill:#008400; fill-opacity:0.0; 
stroke:#008400; stroke-width:60; stroke-opacity:1; 
stroke-linecap:round; stroke-linejoin:round;">
<path d="M68000 36500
L68000 35000
" />
<path d="M68000 35000
L65000 35000
" />
<path d="M65000 35000
L65000 38000
" />
<path d="M63000 38000
L66500 38000
" />
</g>
<g style="fill:#008400; fill-opacity:0.0; 
stroke:#008400; stroke-width:0; stroke-opacity:1; 
stroke-linecap:round; stroke-linejoin:round;">
</g>
<g style="fill:#008400; fill-opacity:1.0; 
stroke:#008400; stroke-width:100; stroke-opacity:1; 
stroke-linecap:round; stroke-linejoin:round;">
<circle cx="65000" cy="38000" r="200" /> 
</g>
<g style="fill:#008400; fill-opacity:1.0; 
stroke:#008400; stroke-width:60; stroke-opacity:1; 
stroke-linecap:round; stroke-linejoin:round;">
</g>
<g style="fill:#008400; fill-opacity:0.0; 
stroke:#008400; stroke-width:60; stroke-opacity:1; 
stroke-linecap:round; stroke-linejoin:round;">
<path d="M60000 38000
L57500 38000
" />
<path d="M57500 33000
L57500 39000
" />
<path d="M57500 33000
L58500 33000
" />
</g>
<g style="fill:#008400; fill-opacity:0.0; 
stroke:#008400; stroke-width:0; stroke-opacity:1; 
stroke-linecap:round; stroke-linejoin:round;">
</g>
<g style="fill:#840000; fill-opacity:0.0; 
stroke:#840000; stroke-width:0; stroke-opacity:1; 
stroke-linecap:round; stroke-linejoin:round;">
</g>
<g style="fill:#840000; fill-opacity:0.0; 
stroke:#840000; stroke-width:200; stroke-opacity:1; 
stroke-linecap:round; stroke-linejoin:round;">
<polyline fill="none;"
points="56700,40800
58300,40800
" /> 
<polyline fill="none;"
points="56700,40200
58300,40200
" /> 
</g>
<g style="fill:#840000; fill-opacity:0.0; 
stroke:#840000; stroke-width:60; stroke-opacity:1; 
stroke-linecap:round; stroke-linejoin:round;">
<path d="M57500 40100
L57500 39000
" />
<path d="M57500 40900
L57500 42000
" />
</g>
<g style="fill:#008484; fill-opacity:0.0; 
stroke:#008484; stroke-width:60; stroke-opacity:1; 
stroke-linecap:round; stroke-linejoin:round;">
<path d="M58150 39650
L58130 39670
L58060 39700
L58010 39700
L57940 39670
L57890 39620
L57870 39580
L57850 39480
L57850 39410
L57870 39320
L57890 39270
L57940 39220
L58010 39200
L58060 39200
L58130 39220
L58150 39240
" />
<path d="M58320 39200
L58650 39200
L58440 39700
" />
<path d="M57850 41240
L57870 41220
L57920 41200
L58040 41200
L58080 41220
L58110 41240
L58130 41290
L58130 41340
L58110 41410
L57820 41700
L58130 41700
" />
<path d="M58330 41240
L58350 41220
L58400 41200
L58520 41200
L58560 41220
L58590 41240
L58610 41290
L58610 41340
L58590 41410
L58300 41700
L58610 41700
" />
<path d="M58830 41360
L58830 41700
" />
<path d="M58830 41410
L58850 41390
L58900 41360
L58970 41360
L59020 41390
L59040 41430
L59040 41700
" />
<path d="M59450 41430
L59280 41430
" />
<path d="M59280 41700
L59280 41200
L59520 41200
" />
</g>
<g style="fill:#008484; fill-opacity:0.0; 
stroke:#008484; stroke-width:0; stroke-opacity:1; 
stroke-linecap:round; stroke-linejoin:round;">
</g>
<g style="fill:#008400; fill-opacity:0.0; 
stroke:#008400; stroke-width:0; stroke-opacity:1; 
stroke-linecap:round; stroke-linejoin:round;">
</g>
<g style="fill:#008400; fill-opacity:1.0; 
stroke:#008400; stroke-width:100; stroke-opacity:1; 
stroke-linecap:round; stroke-linejoin:round;">
<circle cx="57500" cy="38000" r="200" /> 
</g>
<g style="fill:#008400; fill-opacity:1.0; 
stroke:#008400; stroke-width:0; stroke-opacity:1; 
stroke-linecap:round; stroke-linejoin:round;">
</g>
<g style="fill:#840000; fill-opacity:1.0; 
stroke:#840000; stroke-width:0; stroke-opacity:1; 
stroke-linecap:round; stroke-linejoin:round;">
</g>
<g style="fill:#840000; fill-opacity:0.0; 
stroke:#840000; stroke-width:60; stroke-opacity:1; 
stroke-linecap:round; stroke-linejoin:round;">
<polyline fill="none;"
points="57500,42500
57500,43000
58000,43000
57500,43500
57000,43000
57500,43000
" /> 
</g>
<g style="fill:#008484; fill-opacity:0.0; 
stroke:#008484; stroke-width:60; stroke-opacity:1; 
stroke-linecap:round; stroke-linejoin:round;">
<path d="M57120 43720
L57070 43700
L57000 43700
L56930 43720
L56880 43770
L56860 43820
L56840 43910
L56840 43980
L56860 44080
L56880 44120
L56930 44170
L57000 44200
L57050 44200
L57120 44170
L57140 44150
L57140 43980
L57050 43980
" />
<path d="M57360 44200
L57360 43700
L57640 44200
L57640 43700
" />
<path d="M57880 44200
L57880 43700
L58000 43700
L58070 43720
L58120 43770
L58140 43820
L58160 43910
L58160 43980
L58140 44080
L58120 44120
L58070 44170
L58000 44200
L57880 44200
" />
</g>
<g style="fill:#008400; fill-opacity:0.0; 
stroke:#008400; stroke-width:60; stroke-opacity:1; 
stroke-linecap:round; stroke-linejoin:round;">
<path d="M57500 42500
L57500 42000
" />
</g>
<g style="fill:#848400; fill-opacity:0.0; 
stroke:#848400; stroke-width:60; stroke-opacity:1; 
stroke-linecap:round; stroke-linejoin:round;">
<path d="M73520 31670
L73630 31670
L73690 31700
L73750 31760
L73770 31870
L73770 32070
L73750 32190
L73690 32240
L73630 32270
L73520 32270
L73460 32240
L73400 32190
L73370 32070
L73370 31870
L73400 31760
L73460 31700
L73520 31670
" />
<path d="M74030 31670
L74030 32160
L74060 32210
L74090 32240
L74150 32270
L74260 32270
L74320 32240
L74350 32210
L74380 32160
L74380 31670
" />
<path d="M74580 31670
L74920 31670
" />
<path d="M74750 32270
L74750 31670
" />
</g>
<g style="fill:#848400; fill-opacity:0.0; 
stroke:#848400; stroke-width:100; stroke-opacity:1; 
stroke-linecap:round; stroke-linejoin:round;">
<polyline fill="none;"
points="73100,32000
72800,31700
72500,31700
72500,32300
72800,32300
73100,32000
" /> 
</g>
<g style="fill:#848400; fill-opacity:0.0; 
stroke:#848400; stroke-width:60; stroke-opacity:1; 
stroke-linecap:round; stroke-linejoin:round;">
</g>
<g style="fill:#0000C2; fill-opacity:0.0; 
stroke:#0000C2; stroke-width:60; stroke-opacity:1; 
stroke-linecap:round; stroke-linejoin:round;">
<path d="M61560 28030
L61900 28030
" />
<path d="M61730 28630
L61730 28030
" />
<path d="M62190 28630
L62130 28600
L62100 28570
L62070 28520
L62070 28350
L62100 28290
L62130 28260
L62190 28230
L62270 28230
L62330 28260
L62360 28290
L62390 28350
L62390 28520
L62360 28570
L62330 28600
L62270 28630
L62190 28630
" />
<path d="M62640 28230
L62640 28630
" />
<path d="M62640 28290
L62670 28260
L62730 28230
L62810 28230
L62870 28260
L62900 28320
L62900 28630
" />
<path d="M63410 28600
L63350 28630
L63240 28630
L63180 28600
L63150 28550
L63150 28320
L63180 28260
L63240 28230
L63350 28230
L63410 28260
L63440 28320
L63440 28370
L63150 28430
" />
<path d="M64470 28060
L64410 28030
L64320 28030
L64240 28060
L64180 28120
L64150 28170
L64120 28290
L64120 28370
L64150 28490
L64180 28550
L64240 28600
L64320 28630
L64380 28630
L64470 28600
L64500 28570
L64500 28370
L64380 28370
" />
<path d="M64980 28600
L64920 28630
L64810 28630
L64750 28600
L64720 28550
L64720 28320
L64750 28260
L64810 28230
L64920 28230
L64980 28260
L65010 28320
L65010 28370
L64720 28430
" />
<path d="M65260 28230
L65260 28630
" />
<path d="M65260 28290
L65290 28260
L65350 28230
L65430 28230
L65490 28260
L65520 28320
L65520 28630
" />
<path d="M61930 28870
L61640 28870
L61610 29160
L61640 29130
L61700 29100
L61840 29100
L61900 29130
L61930 29160
L61960 29210
L61960 29360
L61930 29410
L61900 29440
L61840 29470
L61700 29470
L61640 29440
L61610 29410
" />
<path d="M62330 28870
L62380 28870
L62440 28900
L62470 28930
L62500 28990
L62530 29100
L62530 29240
L62500 29360
L62470 29410
L62440 29440
L62380 29470
L62330 29470
L62270 29440
L62240 29410
L62210 29360
L62180 29240
L62180 29100
L62210 28990
L62240 28930
L62270 28900
L62330 28870
" />
<path d="M63240 29240
L63700 29240
" />
<path d="M64760 29470
L64410 29470
" />
<path d="M64590 29470
L64590 28870
L64530 28960
L64470 29010
L64410 29040
" />
<path d="M64980 28930
L65010 28900
L65070 28870
L65210 28870
L65270 28900
L65300 28930
L65330 28990
L65330 29040
L65300 29130
L64960 29470
L65330 29470
" />
<path d="M65870 28870
L65580 28870
L65550 29160
L65580 29130
L65640 29100
L65780 29100
L65840 29130
L65870 29160
L65900 29210
L65900 29360
L65870 29410
L65840 29440
L65780 29470
L65640 29470
L65580 29440
L65550 29410
" />
<path d="M66270 28870
L66320 28870
L66380 28900
L66410 28930
L66440 28990
L66470 29100
L66470 29240
L66440 29360
L66410 29410
L66380 29440
L66320 29470
L66270 29470
L66210 29440
L66180 29410
L66150 29360
L66120 29240
L66120 29100
L66150 28990
L66180 28930
L66210 28900
L66270 28870
" />
<path d="M66840 28870
L66890 28870
L66950 28900
L66980 28930
L67010 28990
L67040 29100
L67040 29240
L67010 29360
L66980 29410
L66950 29440
L66890 29470
L66840 29470
L66780 29440
L66750 29410
L66720 29360
L66690 29240
L66690 29100
L66720 28990
L66750 28930
L66780 28900
L66840 28870
" />
<path d="M67750 29470
L67750 28870
" />
<path d="M67750 29160
L68100 29160
" />
<path d="M68100 29470
L68100 28870
" />
<path d="M68330 29070
L68640 29070
L68330 29470
L68640 29470
" />
<path d="M45930 27630
L45640 27630
L45640 27030
" />
<path d="M46330 27320
L46130 27320
" />
<path d="M46130 27630
L46130 27030
L46420 27030
" />
<path d="M46760 27030
L46870 27030
L46930 27060
L46990 27120
L47010 27230
L47010 27430
L46990 27550
L46930 27600
L46870 27630
L46760 27630
L46700 27600
L46640 27550
L46610 27430
L46610 27230
L46640 27120
L46700 27060
L46760 27030
" />
<path d="M45760 27870
L45810 27870
L45870 27900
L45900 27930
L45930 27990
L45960 28100
L45960 28240
L45930 28360
L45900 28410
L45870 28440
L45810 28470
L45760 28470
L45700 28440
L45670 28410
L45640 28360
L45610 28240
L45610 28100
L45640 27990
L45670 27930
L45700 27900
L45760 27870
" />
<path d="M46210 28410
L46240 28440
L46210 28470
L46180 28440
L46210 28410
L46210 28470
" />
<path d="M46820 28470
L46470 28470
" />
<path d="M46650 28470
L46650 27870
L46590 27960
L46530 28010
L46470 28040
" />
<path d="M47530 28240
L47990 28240
" />
<path d="M48700 27930
L48730 27900
L48790 27870
L48930 27870
L48990 27900
L49020 27930
L49050 27990
L49050 28040
L49020 28130
L48680 28470
L49050 28470
" />
<path d="M49590 27870
L49300 27870
L49270 28160
L49300 28130
L49360 28100
L49500 28100
L49560 28130
L49590 28160
L49620 28210
L49620 28360
L49590 28410
L49560 28440
L49500 28470
L49360 28470
L49300 28440
L49270 28410
" />
<path d="M50330 28470
L50330 27870
" />
<path d="M50330 28160
L50680 28160
" />
<path d="M50680 28470
L50680 27870
" />
<path d="M50910 28070
L51220 28070
L50910 28470
L51220 28470
" />
<path d="M67430 39970
L67140 39970
L67140 39370
" />
<path d="M67630 39970
L67630 39570
" />
<path d="M67630 39370
L67600 39400
L67630 39430
L67660 39400
L67630 39370
L67630 39430
" />
<path d="M67920 39570
L67920 39970
" />
<path d="M67920 39630
L67950 39600
L68010 39570
L68090 39570
L68150 39600
L68180 39660
L68180 39970
" />
<path d="M68690 39940
L68630 39970
L68520 39970
L68460 39940
L68430 39890
L68430 39660
L68460 39600
L68520 39570
L68630 39570
L68690 39600
L68720 39660
L68720 39710
L68430 39770
" />
<path d="M69230 39970
L69230 39660
L69200 39600
L69140 39570
L69030 39570
L68970 39600
" />
<path d="M69230 39940
L69170 39970
L69030 39970
L68970 39940
L68940 39890
L68940 39830
L68970 39770
L69030 39740
L69170 39740
L69230 39710
" />
<path d="M69510 39970
L69510 39570
" />
<path d="M69510 39690
L69540 39630
L69570 39600
L69630 39570
L69680 39570
" />
<path d="M70310 39940
L70400 39970
L70540 39970
L70600 39940
L70630 39910
L70660 39860
L70660 39800
L70630 39740
L70600 39710
L70540 39690
L70430 39660
L70370 39630
L70340 39600
L70310 39540
L70310 39490
L70340 39430
L70370 39400
L70430 39370
L70570 39370
L70660 39400
" />
<path d="M71000 39970
L70940 39940
L70910 39890
L70910 39370
" />
<path d="M71220 39970
L71220 39570
" />
<path d="M71220 39370
L71190 39400
L71220 39430
L71250 39400
L71220 39370
L71220 39430
" />
<path d="M71770 39970
L71770 39370
" />
<path d="M71770 39940
L71710 39970
L71600 39970
L71540 39940
L71510 39910
L71480 39860
L71480 39690
L71510 39630
L71540 39600
L71600 39570
L71710 39570
L71770 39600
" />
<path d="M72280 39940
L72220 39970
L72110 39970
L72050 39940
L72020 39890
L72020 39660
L72050 39600
L72110 39570
L72220 39570
L72280 39600
L72310 39660
L72310 39710
L72020 39770
" />
<path d="M72560 39970
L72560 39570
" />
<path d="M72560 39690
L72590 39630
L72620 39600
L72680 39570
L72730 39570
" />
<path d="M50930 39970
L50640 39970
L50640 39370
" />
<path d="M51130 39970
L51130 39570
" />
<path d="M51130 39370
L51100 39400
L51130 39430
L51160 39400
L51130 39370
L51130 39430
" />
<path d="M51420 39570
L51420 39970
" />
<path d="M51420 39630
L51450 39600
L51510 39570
L51590 39570
L51650 39600
L51680 39660
L51680 39970
" />
<path d="M52190 39940
L52130 39970
L52020 39970
L51960 39940
L51930 39890
L51930 39660
L51960 39600
L52020 39570
L52130 39570
L52190 39600
L52220 39660
L52220 39710
L51930 39770
" />
<path d="M52730 39970
L52730 39660
L52700 39600
L52640 39570
L52530 39570
L52470 39600
" />
<path d="M52730 39940
L52670 39970
L52530 39970
L52470 39940
L52440 39890
L52440 39830
L52470 39770
L52530 39740
L52670 39740
L52730 39710
" />
<path d="M53010 39970
L53010 39570
" />
<path d="M53010 39690
L53040 39630
L53070 39600
L53130 39570
L53180 39570
" />
<path d="M53810 39940
L53900 39970
L54040 39970
L54100 39940
L54130 39910
L54160 39860
L54160 39800
L54130 39740
L54100 39710
L54040 39690
L53930 39660
L53870 39630
L53840 39600
L53810 39540
L53810 39490
L53840 39430
L53870 39400
L53930 39370
L54070 39370
L54160 39400
" />
<path d="M54500 39970
L54440 39940
L54410 39890
L54410 39370
" />
<path d="M54720 39970
L54720 39570
" />
<path d="M54720 39370
L54690 39400
L54720 39430
L54750 39400
L54720 39370
L54720 39430
" />
<path d="M55270 39970
L55270 39370
" />
<path d="M55270 39940
L55210 39970
L55100 39970
L55040 39940
L55010 39910
L54980 39860
L54980 39690
L55010 39630
L55040 39600
L55100 39570
L55210 39570
L55270 39600
" />
<path d="M55780 39940
L55720 39970
L55610 39970
L55550 39940
L55520 39890
L55520 39660
L55550 39600
L55610 39570
L55720 39570
L55780 39600
L55810 39660
L55810 39710
L55520 39770
" />
<path d="M56060 39970
L56060 39570
" />
<path d="M56060 39690
L56090 39630
L56120 39600
L56180 39570
L56230 39570
" />
<path d="M43640 41350
L43640 41840
L43670 41890
L43700 41920
L43760 41950
L43870 41950
L43930 41920
L43960 41890
L43990 41840
L43990 41350
" />
<path d="M44240 41920
L44300 41950
L44420 41950
L44470 41920
L44500 41870
L44500 41840
L44470 41780
L44420 41750
L44330 41750
L44270 41720
L44240 41670
L44240 41640
L44270 41580
L44330 41550
L44420 41550
L44470 41580
" />
<path d="M44990 41920
L44930 41950
L44820 41950
L44760 41920
L44730 41870
L44730 41640
L44760 41580
L44820 41550
L44930 41550
L44990 41580
L45020 41640
L45020 41690
L44730 41750
" />
<path d="M45700 41780
L45990 41780
" />
<path d="M45650 41950
L45850 41350
L46050 41950
" />
<path d="M46330 41950
L46270 41920
L46240 41870
L46240 41350
" />
<path d="M46810 41550
L46810 41950
" />
<path d="M46550 41550
L46550 41870
L46580 41920
L46640 41950
L46720 41950
L46780 41920
L46810 41890
" />
<path d="M47090 41720
L47550 41720
" />
<path d="M47830 41950
L47830 41350
L48060 41350
L48120 41380
L48150 41410
L48180 41470
L48180 41550
L48150 41610
L48120 41640
L48060 41670
L47830 41670
" />
<path d="M48520 41950
L48460 41920
L48430 41890
L48400 41840
L48400 41670
L48430 41610
L48460 41580
L48520 41550
L48600 41550
L48660 41580
L48690 41610
L48720 41670
L48720 41840
L48690 41890
L48660 41920
L48600 41950
L48520 41950
" />
<path d="M49060 41950
L49000 41920
L48970 41870
L48970 41350
" />
<path d="M49230 41550
L49370 41950
" />
<path d="M49510 41550
L49370 41950
L49310 42090
L49280 42120
L49230 42150
" />
<path d="M43990 42730
L43960 42760
L43870 42790
L43810 42790
L43730 42760
L43670 42710
L43640 42650
L43610 42530
L43610 42450
L43640 42330
L43670 42280
L43730 42220
L43810 42190
L43870 42190
L43960 42220
L43990 42250
" />
<path d="M44330 42790
L44270 42760
L44240 42730
L44210 42680
L44210 42510
L44240 42450
L44270 42420
L44330 42390
L44410 42390
L44470 42420
L44500 42450
L44530 42510
L44530 42680
L44500 42730
L44470 42760
L44410 42790
L44330 42790
" />
<path d="M44750 42760
L44810 42790
L44930 42790
L44980 42760
L45010 42710
L45010 42680
L44980 42620
L44930 42590
L44840 42590
L44780 42560
L44750 42510
L44750 42480
L44780 42420
L44840 42390
L44930 42390
L44980 42420
" />
<path d="M45680 42390
L45790 42790
L45900 42510
L46020 42790
L46130 42390
" />
<path d="M46360 42790
L46360 42190
" />
<path d="M46620 42790
L46620 42480
L46590 42420
L46530 42390
L46450 42390
L46390 42420
L46360 42450
" />
<path d="M46850 42390
L46990 42790
" />
<path d="M47130 42390
L46990 42790
L46930 42930
L46900 42960
L46850 42990
" />
<path d="M47820 42390
L47820 42790
" />
<path d="M47820 42450
L47850 42420
L47910 42390
L47990 42390
L48050 42420
L48080 42480
L48080 42790
" />
<path d="M48450 42790
L48390 42760
L48360 42730
L48330 42680
L48330 42510
L48360 42450
L48390 42420
L48450 42390
L48530 42390
L48590 42420
L48620 42450
L48650 42510
L48650 42680
L48620 42730
L48590 42760
L48530 42790
L48450 42790
" />
<path d="M48820 42390
L49050 42390
" />
<path d="M48900 42190
L48900 42710
L48930 42760
L48990 42790
L49050 42790
" />
<path d="M49330 42730
L49360 42760
L49330 42790
L49300 42760
L49330 42730
L49330 42790
" />
<path d="M49210 42220
L49270 42190
L49410 42190
L49470 42220
L49500 42280
L49500 42330
L49470 42390
L49440 42420
L49390 42450
L49360 42480
L49330 42530
L49330 42560
" />
<path d="M43990 43570
L43960 43600
L43870 43630
L43810 43630
L43730 43600
L43670 43550
L43640 43490
L43610 43370
L43610 43290
L43640 43170
L43670 43120
L43730 43060
L43810 43030
L43870 43030
L43960 43060
L43990 43090
" />
<path d="M44330 43630
L44270 43600
L44240 43550
L44240 43030
" />
<path d="M44810 43630
L44810 43320
L44780 43260
L44720 43230
L44610 43230
L44550 43260
" />
<path d="M44810 43600
L44750 43630
L44610 43630
L44550 43600
L44520 43550
L44520 43490
L44550 43430
L44610 43400
L44750 43400
L44810 43370
" />
<path d="M45090 43630
L45090 43230
" />
<path d="M45090 43030
L45060 43060
L45090 43090
L45120 43060
L45090 43030
L45090 43090
" />
<path d="M45380 43630
L45380 43230
" />
<path d="M45380 43290
L45410 43260
L45470 43230
L45550 43230
L45610 43260
L45640 43320
L45640 43630
" />
<path d="M45640 43320
L45670 43260
L45730 43230
L45810 43230
L45870 43260
L45900 43320
L45900 43630
" />
<path d="M46640 43630
L46640 43230
" />
<path d="M46640 43030
L46610 43060
L46640 43090
L46670 43060
L46640 43030
L46640 43090
" />
<path d="M46850 43230
L47080 43230
" />
<path d="M46930 43030
L46930 43550
L46960 43600
L47020 43630
L47080 43630
" />
<path d="M47730 43630
L47730 43230
" />
<path d="M47730 43290
L47760 43260
L47820 43230
L47900 43230
L47960 43260
L47990 43320
L47990 43630
" />
<path d="M47990 43320
L48020 43260
L48080 43230
L48160 43230
L48220 43260
L48250 43320
L48250 43630
" />
<path d="M48790 43630
L48790 43320
L48760 43260
L48700 43230
L48590 43230
L48530 43260
" />
<path d="M48790 43600
L48730 43630
L48590 43630
L48530 43600
L48500 43550
L48500 43490
L48530 43430
L48590 43400
L48730 43400
L48790 43370
" />
<path d="M49070 43630
L49070 43030
" />
<path d="M49130 43400
L49300 43630
" />
<path d="M49300 43230
L49070 43460
" />
<path d="M49790 43600
L49730 43630
L49620 43630
L49560 43600
L49530 43550
L49530 43320
L49560 43260
L49620 43230
L49730 43230
L49790 43260
L49820 43320
L49820 43370
L49530 43430
" />
<path d="M50040 43600
L50100 43630
L50220 43630
L50270 43600
L50300 43550
L50300 43520
L50270 43460
L50220 43430
L50130 43430
L50070 43400
L50040 43350
L50040 43320
L50070 43260
L50130 43230
L50220 43230
L50270 43260
" />
<path d="M43640 44470
L43640 44070
" />
<path d="M43640 43870
L43610 43900
L43640 43930
L43670 43900
L43640 43870
L43640 43930
" />
<path d="M43850 44070
L44080 44070
" />
<path d="M43930 43870
L43930 44390
L43960 44440
L44020 44470
L44080 44470
" />
<path d="M44700 44440
L44760 44470
L44880 44470
L44930 44440
L44960 44390
L44960 44360
L44930 44300
L44880 44270
L44790 44270
L44730 44240
L44700 44190
L44700 44160
L44730 44100
L44790 44070
L44880 44070
L44930 44100
" />
<path d="M45310 44470
L45250 44440
L45220 44410
L45190 44360
L45190 44190
L45220 44130
L45250 44100
L45310 44070
L45390 44070
L45450 44100
L45480 44130
L45510 44190
L45510 44360
L45480 44410
L45450 44440
L45390 44470
L45310 44470
" />
<path d="M46020 44070
L46020 44470
" />
<path d="M45760 44070
L45760 44390
L45790 44440
L45850 44470
L45930 44470
L45990 44440
L46020 44410
" />
<path d="M46300 44070
L46300 44470
" />
<path d="M46300 44130
L46330 44100
L46390 44070
L46470 44070
L46530 44100
L46560 44160
L46560 44470
" />
<path d="M47100 44470
L47100 43870
" />
<path d="M47100 44440
L47040 44470
L46930 44470
L46870 44440
L46840 44410
L46810 44360
L46810 44190
L46840 44130
L46870 44100
L46930 44070
L47040 44070
L47100 44100
" />
<path d="M47840 44470
L47840 43870
" />
<path d="M47840 44100
L47900 44070
L48010 44070
L48070 44100
L48100 44130
L48130 44190
L48130 44360
L48100 44410
L48070 44440
L48010 44470
L47900 44470
L47840 44440
" />
<path d="M48610 44440
L48550 44470
L48440 44470
L48380 44440
L48350 44390
L48350 44160
L48380 44100
L48440 44070
L48550 44070
L48610 44100
L48640 44160
L48640 44210
L48350 44270
" />
<path d="M48810 44070
L49040 44070
" />
<path d="M48890 43870
L48890 44390
L48920 44440
L48980 44470
L49040 44470
" />
<path d="M49150 44070
L49380 44070
" />
<path d="M49230 43870
L49230 44390
L49260 44440
L49320 44470
L49380 44470
" />
<path d="M49800 44440
L49740 44470
L49630 44470
L49570 44440
L49540 44390
L49540 44160
L49570 44100
L49630 44070
L49740 44070
L49800 44100
L49830 44160
L49830 44210
L49540 44270
" />
<path d="M50080 44470
L50080 44070
" />
<path d="M50080 44190
L50110 44130
L50140 44100
L50200 44070
L50250 44070
" />
<path d="M50540 44410
L50570 44440
L50540 44470
L50510 44440
L50540 44410
L50540 44470
" />
<path d="M50420 43900
L50480 43870
L50620 43870
L50680 43900
L50710 43960
L50710 44010
L50680 44070
L50650 44100
L50600 44130
L50570 44160
L50540 44210
L50540 44240
" />
</g>
<g style="fill:#0000C2; fill-opacity:0.0; 
stroke:#0000C2; stroke-width:0; stroke-opacity:1; 
stroke-linecap:round; stroke-linejoin:round;">
</g>
<g style="fill:#840000; fill-opacity:0.0; 
stroke:#840000; stroke-width:0; stroke-opacity:1; 
stroke-linecap:round; stroke-linejoin:round;">
</g>
<g style="fill:#840000; fill-opacity:0.0; 
stroke:#840000; stroke-width:60; stroke-opacity:1; 
stroke-linecap:round; stroke-linejoin:round;">
<line x1="40600" y1="40100" x2="40600" y2="40300" />
<line x1="40600" y1="40300" x2="42400" y2="40300" />
</g>
<g style="fill:#840000; fill-opacity:1.0; 
stroke:#840000; stroke-width:60; stroke-opacity:1; 
stroke-linecap:round; stroke-linejoin:round;">
<rect x="40600" y="40700" width="1800" height="200" rx="0" />
</g>
<g style="fill:#840000; fill-opacity:0.0; 
stroke:#840000; stroke-width:60; stroke-opacity:1; 
stroke-linecap:round; stroke-linejoin:round;">
<line x1="40600" y1="40100" x2="42400" y2="40100" />
<line x1="42400" y1="40100" x2="42400" y2="40300" />
<polyline fill="none;"
points="40800,39600
41200,39600
" /> 
<polyline fill="none;"
points="41000,39400
41000,39800
" /> 
<path d="M41500 40100
L41500 39000
" />
<path d="M41500 40900
L41500 42000
" />
</g>
<g style="fill:#008484; fill-opacity:0.0; 
stroke:#008484; stroke-width:60; stroke-opacity:1; 
stroke-linecap:round; stroke-linejoin:round;">
<path d="M42150 39650
L42130 39670
L42060 39700
L42010 39700
L41940 39670
L41890 39620
L41870 39580
L41850 39480
L41850 39410
L41870 39320
L41890 39270
L41940 39220
L42010 39200
L42060 39200
L42130 39220
L42150 39240
" />
<path d="M42580 39200
L42490 39200
L42440 39220
L42420 39240
L42370 39320
L42350 39410
L42350 39600
L42370 39650
L42390 39670
L42440 39700
L42540 39700
L42580 39670
L42610 39650
L42630 39600
L42630 39480
L42610 39430
L42580 39410
L42540 39390
L42440 39390
L42390 39410
L42370 39430
L42350 39480
" />
<path d="M42130 41700
L41850 41700
" />
<path d="M41990 41700
L41990 41200
L41940 41270
L41890 41320
L41850 41340
" />
<path d="M42590 41200
L42350 41200
L42330 41430
L42350 41410
L42400 41390
L42520 41390
L42560 41410
L42590 41430
L42610 41480
L42610 41600
L42590 41650
L42560 41670
L42520 41700
L42400 41700
L42350 41670
L42330 41650
" />
<path d="M42830 41360
L42830 41860
" />
<path d="M43070 41620
L43090 41670
L43140 41700
" />
<path d="M42830 41620
L42850 41670
L42900 41700
L43000 41700
L43040 41670
L43070 41620
L43070 41360
" />
</g> 
</svg>
